<mxfile host="app.diagrams.net" modified="2024-06-12T11:14:49.400Z" agent="Mozilla/5.0 (Windows NT 10.0; Win64; x64) AppleWebKit/537.36 (KHTML, like Gecko) Chrome/125.0.0.0 Safari/537.36" etag="8gwkn5TtEolA8pQa5fpf" version="24.5.3" type="github">
  <diagram id="NsUplz_uinZOCI7nmMil" name="Page-1">
    <mxGraphModel dx="1834" dy="1146" grid="0" gridSize="10" guides="1" tooltips="1" connect="1" arrows="1" fold="1" page="0" pageScale="1" pageWidth="827" pageHeight="1169" math="0" shadow="0">
      <root>
        <mxCell id="0" />
        <mxCell id="1" parent="0" />
        <mxCell id="jRPfxaUJ6jdpRpEulSyn-87" value="" style="rounded=0;whiteSpace=wrap;html=1;fontFamily=Helvetica;fontSize=12;strokeColor=#d79b00;strokeWidth=2;fillColor=#ffe6cc;" parent="1" vertex="1">
          <mxGeometry x="27" y="-55" width="726" height="172" as="geometry" />
        </mxCell>
        <mxCell id="heGB15kAMO9hl7v8kSQB-2" value="" style="rounded=0;whiteSpace=wrap;html=1;fontFamily=Helvetica;fontSize=12;strokeColor=#66B2FF;strokeWidth=2;fillColor=none;fontColor=#333333;dashed=1;" parent="1" vertex="1">
          <mxGeometry x="280.75" y="-45" width="127.25" height="157" as="geometry" />
        </mxCell>
        <mxCell id="jRPfxaUJ6jdpRpEulSyn-99" value="" style="rounded=0;whiteSpace=wrap;html=1;fontFamily=Helvetica;fontSize=12;strokeColor=#66B2FF;strokeWidth=2;fillColor=none;fontColor=#333333;dashed=1;" parent="1" vertex="1">
          <mxGeometry x="50" y="-45" width="210" height="157" as="geometry" />
        </mxCell>
        <mxCell id="jRPfxaUJ6jdpRpEulSyn-1" value="" style="rounded=0;whiteSpace=wrap;html=1;strokeColor=#808080;fillColor=#f5f5f5;fontColor=#333333;fontFamily=Helvetica;" parent="1" vertex="1">
          <mxGeometry x="27" y="554" width="721" height="164" as="geometry" />
        </mxCell>
        <mxCell id="jRPfxaUJ6jdpRpEulSyn-7" value="" style="rounded=0;whiteSpace=wrap;html=1;strokeColor=#666666;fillColor=#f5f5f5;fontColor=#333333;fontFamily=Helvetica;" parent="1" vertex="1">
          <mxGeometry x="40" y="632" width="692" height="80" as="geometry" />
        </mxCell>
        <mxCell id="jRPfxaUJ6jdpRpEulSyn-2" value="" style="rounded=1;whiteSpace=wrap;html=1;dashed=1;strokeColor=#FF250D;fontFamily=Helvetica;" parent="1" vertex="1">
          <mxGeometry x="132" y="647" width="248" height="60" as="geometry" />
        </mxCell>
        <mxCell id="jRPfxaUJ6jdpRpEulSyn-3" value="" style="rounded=1;whiteSpace=wrap;html=1;dashed=1;strokeColor=#FF3D0D;fontFamily=Helvetica;" parent="1" vertex="1">
          <mxGeometry x="398" y="647" width="248" height="60" as="geometry" />
        </mxCell>
        <mxCell id="jRPfxaUJ6jdpRpEulSyn-4" value="关系型数据库" style="text;html=1;strokeColor=none;fillColor=none;align=center;verticalAlign=middle;whiteSpace=wrap;rounded=0;fontFamily=Helvetica;" parent="1" vertex="1">
          <mxGeometry x="212.5" y="644" width="87" height="30" as="geometry" />
        </mxCell>
        <mxCell id="jRPfxaUJ6jdpRpEulSyn-5" value="文档数据库" style="text;html=1;strokeColor=none;fillColor=none;align=center;verticalAlign=middle;whiteSpace=wrap;rounded=0;fontFamily=Helvetica;" parent="1" vertex="1">
          <mxGeometry x="475" y="644" width="87" height="30" as="geometry" />
        </mxCell>
        <mxCell id="jRPfxaUJ6jdpRpEulSyn-8" value="MySql" style="rounded=1;whiteSpace=wrap;html=1;strokeColor=#6c8ebf;fillColor=#dae8fc;fontFamily=Helvetica;" parent="1" vertex="1">
          <mxGeometry x="210.5" y="674" width="89" height="26" as="geometry" />
        </mxCell>
        <mxCell id="jRPfxaUJ6jdpRpEulSyn-9" value="MongoDB" style="rounded=1;whiteSpace=wrap;html=1;strokeColor=#6c8ebf;fillColor=#dae8fc;fontFamily=Helvetica;" parent="1" vertex="1">
          <mxGeometry x="474" y="674" width="89" height="26" as="geometry" />
        </mxCell>
        <mxCell id="jRPfxaUJ6jdpRpEulSyn-10" value="持久化存储" style="text;html=1;strokeColor=none;fillColor=none;align=center;verticalAlign=middle;whiteSpace=wrap;rounded=0;fontFamily=Helvetica;" parent="1" vertex="1">
          <mxGeometry x="38" y="632" width="76" height="30" as="geometry" />
        </mxCell>
        <mxCell id="jRPfxaUJ6jdpRpEulSyn-11" value="" style="rounded=0;whiteSpace=wrap;html=1;strokeColor=#666666;fillColor=#f5f5f5;fontColor=#333333;fontFamily=Helvetica;" parent="1" vertex="1">
          <mxGeometry x="40" y="575" width="692" height="48" as="geometry" />
        </mxCell>
        <mxCell id="jRPfxaUJ6jdpRpEulSyn-12" value="分布式缓存" style="text;html=1;strokeColor=none;fillColor=none;align=center;verticalAlign=middle;whiteSpace=wrap;rounded=0;fontFamily=Helvetica;" parent="1" vertex="1">
          <mxGeometry x="38" y="571" width="76" height="30" as="geometry" />
        </mxCell>
        <mxCell id="jRPfxaUJ6jdpRpEulSyn-13" value="Redis集群" style="rounded=1;whiteSpace=wrap;html=1;strokeColor=#6c8ebf;fillColor=#dae8fc;fontFamily=Helvetica;" parent="1" vertex="1">
          <mxGeometry x="339" y="586" width="89" height="26" as="geometry" />
        </mxCell>
        <mxCell id="jRPfxaUJ6jdpRpEulSyn-14" value="数据存储" style="text;html=1;strokeColor=none;fillColor=none;align=center;verticalAlign=middle;whiteSpace=wrap;rounded=0;fontStyle=1;fontFamily=Helvetica;" parent="1" vertex="1">
          <mxGeometry x="20" y="549" width="76" height="30" as="geometry" />
        </mxCell>
        <mxCell id="jRPfxaUJ6jdpRpEulSyn-15" value="" style="shape=curlyBracket;whiteSpace=wrap;html=1;rounded=1;strokeColor=#000000;fontStyle=1;strokeWidth=2;fontFamily=Helvetica;" parent="1" vertex="1">
          <mxGeometry x="2" y="558.5" width="20" height="155" as="geometry" />
        </mxCell>
        <mxCell id="jRPfxaUJ6jdpRpEulSyn-17" value="存&lt;br&gt;储" style="text;html=1;strokeColor=none;fillColor=none;align=center;verticalAlign=middle;whiteSpace=wrap;rounded=0;fontStyle=1;fontFamily=Helvetica;" parent="1" vertex="1">
          <mxGeometry x="-44" y="621" width="60" height="30" as="geometry" />
        </mxCell>
        <mxCell id="jRPfxaUJ6jdpRpEulSyn-18" value="" style="rounded=0;whiteSpace=wrap;html=1;strokeColor=#666666;fillColor=#f5f5f5;fontColor=#333333;fontFamily=Helvetica;" parent="1" vertex="1">
          <mxGeometry x="27" y="468" width="721" height="60" as="geometry" />
        </mxCell>
        <mxCell id="jRPfxaUJ6jdpRpEulSyn-19" value="中间件" style="text;html=1;strokeColor=none;fillColor=none;align=center;verticalAlign=middle;whiteSpace=wrap;rounded=0;fontStyle=1;fontFamily=Helvetica;" parent="1" vertex="1">
          <mxGeometry x="22" y="464" width="76" height="30" as="geometry" />
        </mxCell>
        <mxCell id="jRPfxaUJ6jdpRpEulSyn-20" value="Nacos注册中心" style="rounded=1;whiteSpace=wrap;html=1;strokeColor=#6c8ebf;fillColor=#dae8fc;fontFamily=Helvetica;" parent="1" vertex="1">
          <mxGeometry x="50" y="494" width="89" height="26" as="geometry" />
        </mxCell>
        <mxCell id="jRPfxaUJ6jdpRpEulSyn-22" value="&lt;p class=&quot;MsoNormal&quot; style=&quot;font-size: 12px;&quot;&gt;&lt;span style=&quot;font-size: 12px;&quot;&gt;&lt;font style=&quot;font-size: 12px;&quot;&gt;RocketMQ&lt;/font&gt;&lt;/span&gt;&lt;/p&gt;" style="rounded=1;whiteSpace=wrap;html=1;strokeColor=#6c8ebf;fillColor=#dae8fc;fontFamily=Helvetica;fontSize=12;" parent="1" vertex="1">
          <mxGeometry x="169" y="494" width="89" height="26" as="geometry" />
        </mxCell>
        <mxCell id="jRPfxaUJ6jdpRpEulSyn-23" value="&lt;p class=&quot;MsoNormal&quot;&gt;Sentinel&lt;br&gt;&lt;/p&gt;" style="rounded=1;whiteSpace=wrap;html=1;strokeColor=#6c8ebf;fillColor=#dae8fc;fontFamily=Helvetica;verticalAlign=middle;fontSize=12;" parent="1" vertex="1">
          <mxGeometry x="295" y="494" width="89" height="26" as="geometry" />
        </mxCell>
        <mxCell id="jRPfxaUJ6jdpRpEulSyn-24" value="&lt;p class=&quot;MsoNormal&quot;&gt;Skywalking&lt;br&gt;&lt;/p&gt;" style="rounded=1;whiteSpace=wrap;html=1;strokeColor=#6c8ebf;fillColor=#dae8fc;fontFamily=Helvetica;verticalAlign=middle;fontSize=12;" parent="1" vertex="1">
          <mxGeometry x="422" y="494" width="89" height="26" as="geometry" />
        </mxCell>
        <mxCell id="jRPfxaUJ6jdpRpEulSyn-25" value="&lt;p class=&quot;MsoNormal&quot; style=&quot;font-size: 12px;&quot;&gt;&lt;span style=&quot;font-size: 12px;&quot;&gt;&lt;font style=&quot;font-size: 12px;&quot;&gt;JWT&lt;/font&gt;&lt;/span&gt;&lt;/p&gt;" style="rounded=1;whiteSpace=wrap;html=1;strokeColor=#6c8ebf;fillColor=#dae8fc;fontFamily=Helvetica;fontSize=12;" parent="1" vertex="1">
          <mxGeometry x="548" y="494" width="81" height="26" as="geometry" />
        </mxCell>
        <mxCell id="jRPfxaUJ6jdpRpEulSyn-26" value="" style="rounded=0;whiteSpace=wrap;html=1;strokeColor=#666666;fillColor=#E6E6E6;fontColor=#333333;fontFamily=Helvetica;" parent="1" vertex="1">
          <mxGeometry x="26" y="245" width="143" height="106" as="geometry" />
        </mxCell>
        <mxCell id="jRPfxaUJ6jdpRpEulSyn-27" value="监控" style="text;html=1;strokeColor=none;fillColor=none;align=center;verticalAlign=middle;whiteSpace=wrap;rounded=0;fontStyle=1;fontFamily=Helvetica;" parent="1" vertex="1">
          <mxGeometry x="16" y="245" width="76" height="30" as="geometry" />
        </mxCell>
        <mxCell id="jRPfxaUJ6jdpRpEulSyn-28" value="&lt;h2 style=&quot;box-sizing: border-box; outline: 0px; margin: 8px 0px 16px; padding: 0px; color: rgb(79, 79, 79); line-height: 30px; overflow-wrap: break-word;&quot;&gt;&lt;font style=&quot;font-size: 12px&quot;&gt;SpringBootAdmin&lt;/font&gt;&lt;/h2&gt;" style="rounded=1;whiteSpace=wrap;html=1;strokeColor=#9673a6;fillColor=#E776E3;fontFamily=Helvetica;" parent="1" vertex="1">
          <mxGeometry x="36" y="285" width="123" height="26" as="geometry" />
        </mxCell>
        <mxCell id="jRPfxaUJ6jdpRpEulSyn-29" value="" style="rounded=0;whiteSpace=wrap;html=1;strokeColor=#666666;fillColor=#E6E6E6;fontColor=#333333;fontFamily=Helvetica;" parent="1" vertex="1">
          <mxGeometry x="605" y="245" width="143" height="213" as="geometry" />
        </mxCell>
        <mxCell id="jRPfxaUJ6jdpRpEulSyn-30" value="日志收集" style="text;html=1;strokeColor=none;fillColor=none;align=center;verticalAlign=middle;whiteSpace=wrap;rounded=0;fontStyle=1;fontFamily=Helvetica;" parent="1" vertex="1">
          <mxGeometry x="603" y="245" width="76" height="30" as="geometry" />
        </mxCell>
        <mxCell id="jRPfxaUJ6jdpRpEulSyn-31" value="Elasticsearch" style="rounded=1;whiteSpace=wrap;html=1;strokeColor=#6c8ebf;fillColor=#dae8fc;fontFamily=Helvetica;" parent="1" vertex="1">
          <mxGeometry x="634" y="281" width="89" height="26" as="geometry" />
        </mxCell>
        <mxCell id="jRPfxaUJ6jdpRpEulSyn-32" value="LogStash" style="rounded=1;whiteSpace=wrap;html=1;strokeColor=#6c8ebf;fillColor=#dae8fc;fontFamily=Helvetica;" parent="1" vertex="1">
          <mxGeometry x="632" y="337" width="89" height="26" as="geometry" />
        </mxCell>
        <mxCell id="jRPfxaUJ6jdpRpEulSyn-33" value="Kibana" style="rounded=1;whiteSpace=wrap;html=1;strokeColor=#6c8ebf;fillColor=#dae8fc;fontFamily=Helvetica;" parent="1" vertex="1">
          <mxGeometry x="632" y="392" width="89" height="26" as="geometry" />
        </mxCell>
        <mxCell id="jRPfxaUJ6jdpRpEulSyn-35" value="" style="rounded=0;whiteSpace=wrap;html=1;strokeColor=#666666;fillColor=#E6E6E6;fontColor=#333333;fontFamily=Helvetica;" parent="1" vertex="1">
          <mxGeometry x="26" y="363" width="143" height="96" as="geometry" />
        </mxCell>
        <mxCell id="jRPfxaUJ6jdpRpEulSyn-36" value="Nacos配置中心" style="rounded=1;whiteSpace=wrap;html=1;strokeColor=#82b366;fillColor=#d5e8d4;fontFamily=Helvetica;" parent="1" vertex="1">
          <mxGeometry x="55" y="406" width="89" height="26" as="geometry" />
        </mxCell>
        <mxCell id="jRPfxaUJ6jdpRpEulSyn-37" value="配置中心" style="text;html=1;strokeColor=none;fillColor=none;align=center;verticalAlign=middle;whiteSpace=wrap;rounded=0;fontStyle=1;fontFamily=Helvetica;" parent="1" vertex="1">
          <mxGeometry x="26" y="360" width="76" height="30" as="geometry" />
        </mxCell>
        <mxCell id="jRPfxaUJ6jdpRpEulSyn-38" value="" style="rounded=0;whiteSpace=wrap;html=1;strokeColor=#666666;fillColor=#f5f5f5;fontColor=#333333;fontFamily=Helvetica;" parent="1" vertex="1">
          <mxGeometry x="182" y="245" width="411" height="212" as="geometry" />
        </mxCell>
        <mxCell id="jRPfxaUJ6jdpRpEulSyn-39" value="业务服务" style="text;html=1;strokeColor=none;fillColor=none;align=center;verticalAlign=middle;whiteSpace=wrap;rounded=0;fontStyle=1;fontFamily=Helvetica;" parent="1" vertex="1">
          <mxGeometry x="175.5" y="242" width="76" height="30" as="geometry" />
        </mxCell>
        <mxCell id="jRPfxaUJ6jdpRpEulSyn-40" value="Sprint Boot" style="rounded=1;whiteSpace=wrap;html=1;strokeColor=#6c8ebf;fillColor=#dae8fc;fontFamily=Helvetica;" parent="1" vertex="1">
          <mxGeometry x="189.5" y="275" width="89" height="28" as="geometry" />
        </mxCell>
        <mxCell id="jRPfxaUJ6jdpRpEulSyn-41" value="Sprint Cloud Alibaba" style="rounded=1;whiteSpace=wrap;html=1;strokeColor=#6c8ebf;fillColor=#dae8fc;fontFamily=Helvetica;" parent="1" vertex="1">
          <mxGeometry x="288" y="275" width="89" height="26" as="geometry" />
        </mxCell>
        <mxCell id="jRPfxaUJ6jdpRpEulSyn-42" value="Spring&lt;br&gt;Framework" style="rounded=1;whiteSpace=wrap;html=1;strokeColor=#6c8ebf;fillColor=#dae8fc;fontFamily=Helvetica;" parent="1" vertex="1">
          <mxGeometry x="388" y="274" width="89" height="28" as="geometry" />
        </mxCell>
        <mxCell id="jRPfxaUJ6jdpRpEulSyn-44" value="Dubbo/Feign" style="rounded=1;whiteSpace=wrap;html=1;strokeColor=#6c8ebf;fillColor=#dae8fc;fontFamily=Helvetica;" parent="1" vertex="1">
          <mxGeometry x="287.5" y="313" width="89" height="28" as="geometry" />
        </mxCell>
        <mxCell id="jRPfxaUJ6jdpRpEulSyn-47" value="Mybatis-plus" style="rounded=1;whiteSpace=wrap;html=1;strokeColor=#6c8ebf;fillColor=#dae8fc;fontFamily=Helvetica;" parent="1" vertex="1">
          <mxGeometry x="388" y="313" width="89" height="28" as="geometry" />
        </mxCell>
        <mxCell id="jRPfxaUJ6jdpRpEulSyn-48" value="Logback" style="rounded=1;whiteSpace=wrap;html=1;strokeColor=#6c8ebf;fillColor=#dae8fc;fontFamily=Helvetica;" parent="1" vertex="1">
          <mxGeometry x="188.25" y="351" width="89" height="28" as="geometry" />
        </mxCell>
        <mxCell id="jRPfxaUJ6jdpRpEulSyn-49" value="FastJson" style="rounded=1;whiteSpace=wrap;html=1;strokeColor=#6c8ebf;fillColor=#dae8fc;fontFamily=Helvetica;" parent="1" vertex="1">
          <mxGeometry x="286.25" y="351" width="89" height="28" as="geometry" />
        </mxCell>
        <mxCell id="jRPfxaUJ6jdpRpEulSyn-50" value="Swagger" style="rounded=1;whiteSpace=wrap;html=1;strokeColor=#6c8ebf;fillColor=#dae8fc;fontFamily=Helvetica;" parent="1" vertex="1">
          <mxGeometry x="386.75" y="351" width="89" height="28" as="geometry" />
        </mxCell>
        <mxCell id="jRPfxaUJ6jdpRpEulSyn-51" value="XXL-Job" style="rounded=1;whiteSpace=wrap;html=1;strokeColor=#6c8ebf;fillColor=#dae8fc;fontFamily=Helvetica;" parent="1" vertex="1">
          <mxGeometry x="188" y="388" width="89" height="28" as="geometry" />
        </mxCell>
        <mxCell id="jRPfxaUJ6jdpRpEulSyn-52" value="Lombok" style="rounded=1;whiteSpace=wrap;html=1;strokeColor=#6c8ebf;fillColor=#dae8fc;fontFamily=Helvetica;" parent="1" vertex="1">
          <mxGeometry x="286" y="388" width="89" height="28" as="geometry" />
        </mxCell>
        <mxCell id="jRPfxaUJ6jdpRpEulSyn-53" value="Druid" style="rounded=1;whiteSpace=wrap;html=1;strokeColor=#6c8ebf;fillColor=#dae8fc;fontFamily=Helvetica;" parent="1" vertex="1">
          <mxGeometry x="386.5" y="388" width="89" height="28" as="geometry" />
        </mxCell>
        <mxCell id="jRPfxaUJ6jdpRpEulSyn-54" value="Validation" style="rounded=1;whiteSpace=wrap;html=1;strokeColor=#6c8ebf;fillColor=#dae8fc;fontFamily=Helvetica;" parent="1" vertex="1">
          <mxGeometry x="187.75" y="425" width="89" height="28" as="geometry" />
        </mxCell>
        <mxCell id="jRPfxaUJ6jdpRpEulSyn-58" value="" style="rounded=0;whiteSpace=wrap;html=1;fontFamily=Helvetica;fontSize=12;strokeColor=#b85450;strokeWidth=2;fillColor=#f8cecc;" parent="1" vertex="1">
          <mxGeometry x="489" y="259" width="92" height="193" as="geometry" />
        </mxCell>
        <mxCell id="jRPfxaUJ6jdpRpEulSyn-59" value="三方服务" style="text;html=1;strokeColor=none;fillColor=none;align=center;verticalAlign=middle;whiteSpace=wrap;rounded=0;fontStyle=1;fontFamily=Helvetica;" parent="1" vertex="1">
          <mxGeometry x="480" y="255" width="76" height="30" as="geometry" />
        </mxCell>
        <mxCell id="jRPfxaUJ6jdpRpEulSyn-61" value="推送" style="rounded=1;whiteSpace=wrap;html=1;strokeColor=#6c8ebf;fillColor=#dae8fc;fontFamily=Helvetica;" parent="1" vertex="1">
          <mxGeometry x="498.75" y="300" width="72.5" height="26" as="geometry" />
        </mxCell>
        <mxCell id="jRPfxaUJ6jdpRpEulSyn-62" value="短信" style="rounded=1;whiteSpace=wrap;html=1;strokeColor=#6c8ebf;fillColor=#dae8fc;fontFamily=Helvetica;" parent="1" vertex="1">
          <mxGeometry x="498.75" y="340" width="72.5" height="26" as="geometry" />
        </mxCell>
        <mxCell id="jRPfxaUJ6jdpRpEulSyn-64" value="邮件" style="rounded=1;whiteSpace=wrap;html=1;strokeColor=#6c8ebf;fillColor=#dae8fc;fontFamily=Helvetica;" parent="1" vertex="1">
          <mxGeometry x="498.75" y="380" width="72.5" height="26" as="geometry" />
        </mxCell>
        <mxCell id="jRPfxaUJ6jdpRpEulSyn-65" value="..." style="rounded=1;whiteSpace=wrap;html=1;strokeColor=#6c8ebf;fillColor=#dae8fc;fontFamily=Helvetica;" parent="1" vertex="1">
          <mxGeometry x="499" y="419" width="72.5" height="26" as="geometry" />
        </mxCell>
        <mxCell id="jRPfxaUJ6jdpRpEulSyn-76" value="" style="shape=curlyBracket;whiteSpace=wrap;html=1;rounded=1;strokeColor=#000000;fontStyle=1;strokeWidth=2;fontFamily=Helvetica;" parent="1" vertex="1">
          <mxGeometry x="2" y="249.5" width="20" height="275.5" as="geometry" />
        </mxCell>
        <mxCell id="jRPfxaUJ6jdpRpEulSyn-77" value="服&lt;br&gt;务&lt;br&gt;相&lt;br&gt;关" style="text;html=1;strokeColor=none;fillColor=none;align=center;verticalAlign=middle;whiteSpace=wrap;rounded=0;fontStyle=1;fontFamily=Helvetica;" parent="1" vertex="1">
          <mxGeometry x="-44" y="372.25" width="60" height="30" as="geometry" />
        </mxCell>
        <mxCell id="jRPfxaUJ6jdpRpEulSyn-78" value="" style="rounded=0;whiteSpace=wrap;html=1;strokeColor=#666666;fillColor=#f5f5f5;fontColor=#333333;fontFamily=Helvetica;" parent="1" vertex="1">
          <mxGeometry x="26" y="164" width="721" height="60" as="geometry" />
        </mxCell>
        <mxCell id="jRPfxaUJ6jdpRpEulSyn-79" value="API Gateway" style="text;html=1;strokeColor=none;fillColor=none;align=center;verticalAlign=middle;whiteSpace=wrap;rounded=0;fontFamily=Helvetica;fontSize=12;fontStyle=1" parent="1" vertex="1">
          <mxGeometry x="30" y="159" width="98" height="30" as="geometry" />
        </mxCell>
        <mxCell id="jRPfxaUJ6jdpRpEulSyn-80" value="Zuul服务网关" style="rounded=1;whiteSpace=wrap;html=1;strokeColor=#6c8ebf;fillColor=#dae8fc;fontFamily=Helvetica;" parent="1" vertex="1">
          <mxGeometry x="175.5" y="183" width="89" height="28" as="geometry" />
        </mxCell>
        <mxCell id="jRPfxaUJ6jdpRpEulSyn-81" value="Nginx" style="rounded=1;whiteSpace=wrap;html=1;strokeColor=#6c8ebf;fillColor=#dae8fc;fontFamily=Helvetica;" parent="1" vertex="1">
          <mxGeometry x="459" y="183" width="89" height="28" as="geometry" />
        </mxCell>
        <mxCell id="jRPfxaUJ6jdpRpEulSyn-82" value="" style="shape=curlyBracket;whiteSpace=wrap;html=1;rounded=1;strokeColor=#000000;fontStyle=1;strokeWidth=2;fontFamily=Helvetica;" parent="1" vertex="1">
          <mxGeometry x="2" y="167.5" width="20" height="56.5" as="geometry" />
        </mxCell>
        <mxCell id="jRPfxaUJ6jdpRpEulSyn-83" value="网&lt;br&gt;关" style="text;html=1;strokeColor=none;fillColor=none;align=center;verticalAlign=middle;whiteSpace=wrap;rounded=0;fontStyle=1;fontFamily=Helvetica;" parent="1" vertex="1">
          <mxGeometry x="-43" y="180.75" width="60" height="30" as="geometry" />
        </mxCell>
        <mxCell id="jRPfxaUJ6jdpRpEulSyn-84" value="" style="endArrow=none;dashed=1;html=1;rounded=0;fontFamily=Helvetica;fontSize=12;strokeWidth=3;fillColor=#dae8fc;strokeColor=#6c8ebf;" parent="1" edge="1">
          <mxGeometry width="50" height="50" relative="1" as="geometry">
            <mxPoint x="27" y="140" as="sourcePoint" />
            <mxPoint x="748" y="142" as="targetPoint" />
          </mxGeometry>
        </mxCell>
        <mxCell id="jRPfxaUJ6jdpRpEulSyn-85" value="" style="shape=flexArrow;endArrow=classic;startArrow=classic;html=1;rounded=0;fontFamily=Helvetica;fontSize=12;strokeWidth=1;fillColor=#dae8fc;strokeColor=#6c8ebf;width=6;endSize=3.67;startWidth=17;startSize=3.67;" parent="1" edge="1">
          <mxGeometry width="100" height="100" relative="1" as="geometry">
            <mxPoint x="212.5" y="164" as="sourcePoint" />
            <mxPoint x="213" y="118" as="targetPoint" />
          </mxGeometry>
        </mxCell>
        <mxCell id="jRPfxaUJ6jdpRpEulSyn-86" value="" style="shape=flexArrow;endArrow=classic;startArrow=classic;html=1;rounded=0;fontFamily=Helvetica;fontSize=12;strokeWidth=1;fillColor=#dae8fc;strokeColor=#6c8ebf;width=6;endSize=3.67;startWidth=17;startSize=3.67;" parent="1" edge="1">
          <mxGeometry width="100" height="100" relative="1" as="geometry">
            <mxPoint x="498.5" y="163" as="sourcePoint" />
            <mxPoint x="499" y="119" as="targetPoint" />
          </mxGeometry>
        </mxCell>
        <mxCell id="jRPfxaUJ6jdpRpEulSyn-88" value="" style="shape=curlyBracket;whiteSpace=wrap;html=1;rounded=1;strokeColor=#000000;fontStyle=1;strokeWidth=2;fontFamily=Helvetica;" parent="1" vertex="1">
          <mxGeometry x="2" y="-49" width="20" height="163" as="geometry" />
        </mxCell>
        <mxCell id="jRPfxaUJ6jdpRpEulSyn-89" value="前&lt;br&gt;端" style="text;html=1;strokeColor=none;fillColor=none;align=center;verticalAlign=middle;whiteSpace=wrap;rounded=0;fontStyle=1;fontFamily=Helvetica;" parent="1" vertex="1">
          <mxGeometry x="-43" y="16" width="60" height="30" as="geometry" />
        </mxCell>
        <mxCell id="jRPfxaUJ6jdpRpEulSyn-90" value="HTML5" style="rounded=1;whiteSpace=wrap;html=1;strokeColor=#6c8ebf;fillColor=#dae8fc;fontFamily=Helvetica;" parent="1" vertex="1">
          <mxGeometry x="62" y="-19" width="89" height="28" as="geometry" />
        </mxCell>
        <mxCell id="jRPfxaUJ6jdpRpEulSyn-91" value="Nuxt.js" style="rounded=1;whiteSpace=wrap;html=1;strokeColor=#6c8ebf;fillColor=#dae8fc;fontFamily=Helvetica;" parent="1" vertex="1">
          <mxGeometry x="62" y="19.5" width="89" height="28" as="geometry" />
        </mxCell>
        <mxCell id="jRPfxaUJ6jdpRpEulSyn-92" value="Vue" style="rounded=1;whiteSpace=wrap;html=1;strokeColor=#6c8ebf;fillColor=#dae8fc;fontFamily=Helvetica;" parent="1" vertex="1">
          <mxGeometry x="167" y="-19" width="89" height="28" as="geometry" />
        </mxCell>
        <mxCell id="jRPfxaUJ6jdpRpEulSyn-93" value="Vant" style="rounded=1;whiteSpace=wrap;html=1;strokeColor=#6c8ebf;fillColor=#dae8fc;fontFamily=Helvetica;" parent="1" vertex="1">
          <mxGeometry x="167" y="18.5" width="89" height="28" as="geometry" />
        </mxCell>
        <mxCell id="jRPfxaUJ6jdpRpEulSyn-94" value="uni-app" style="rounded=1;whiteSpace=wrap;html=1;strokeColor=#6c8ebf;fillColor=#dae8fc;fontFamily=Helvetica;" parent="1" vertex="1">
          <mxGeometry x="295.5" y="-19" width="89" height="28" as="geometry" />
        </mxCell>
        <mxCell id="jRPfxaUJ6jdpRpEulSyn-96" value="Vant Webapp" style="rounded=1;whiteSpace=wrap;html=1;strokeColor=#6c8ebf;fillColor=#dae8fc;fontFamily=Helvetica;" parent="1" vertex="1">
          <mxGeometry x="294.5" y="17" width="89" height="28" as="geometry" />
        </mxCell>
        <mxCell id="jRPfxaUJ6jdpRpEulSyn-98" value="HTTPS / WebSocket&amp;nbsp; &amp;nbsp; REST&amp;nbsp; &amp;nbsp;JSON&amp;nbsp;" style="text;html=1;strokeColor=none;fillColor=none;align=center;verticalAlign=middle;whiteSpace=wrap;rounded=0;fontFamily=Helvetica;fontSize=12;fontColor=#FF250D;" parent="1" vertex="1">
          <mxGeometry x="244" y="114" width="237" height="30" as="geometry" />
        </mxCell>
        <mxCell id="jRPfxaUJ6jdpRpEulSyn-100" value="WEB" style="text;html=1;strokeColor=none;fillColor=none;align=center;verticalAlign=middle;whiteSpace=wrap;rounded=0;fontFamily=Helvetica;fontSize=12;fontColor=#000000;fontStyle=1" parent="1" vertex="1">
          <mxGeometry x="127.75" y="-49" width="60" height="30" as="geometry" />
        </mxCell>
        <mxCell id="jRPfxaUJ6jdpRpEulSyn-103" value="" style="rounded=0;whiteSpace=wrap;html=1;fontFamily=Helvetica;fontSize=12;fontColor=#333333;strokeColor=#66B2FF;strokeWidth=2;fillColor=none;dashed=1;" parent="1" vertex="1">
          <mxGeometry x="568" y="-45" width="180" height="157" as="geometry" />
        </mxCell>
        <mxCell id="jRPfxaUJ6jdpRpEulSyn-104" value="其他" style="text;html=1;strokeColor=none;fillColor=none;align=center;verticalAlign=middle;whiteSpace=wrap;rounded=0;fontFamily=Helvetica;fontSize=12;fontColor=#000000;fontStyle=1" parent="1" vertex="1">
          <mxGeometry x="629" y="-49" width="60" height="30" as="geometry" />
        </mxCell>
        <mxCell id="jRPfxaUJ6jdpRpEulSyn-105" value="Node.js" style="rounded=1;whiteSpace=wrap;html=1;strokeColor=#6c8ebf;fillColor=#dae8fc;fontFamily=Helvetica;" parent="1" vertex="1">
          <mxGeometry x="577" y="-20" width="72.5" height="28" as="geometry" />
        </mxCell>
        <mxCell id="DsEqZttGN_wy35svjwI5-1" value="Spring Data Redis" style="rounded=1;whiteSpace=wrap;html=1;strokeColor=#6c8ebf;fillColor=#dae8fc;fontFamily=Helvetica;" parent="1" vertex="1">
          <mxGeometry x="189.5" y="313" width="89" height="28" as="geometry" />
        </mxCell>
        <mxCell id="DsEqZttGN_wy35svjwI5-2" value="&lt;p class=&quot;MsoNormal&quot; style=&quot;font-size: 12px&quot;&gt;&lt;span style=&quot;font-size: 12px&quot;&gt;&lt;font style=&quot;font-size: 12px&quot;&gt;Jenkins&lt;/font&gt;&lt;/span&gt;&lt;/p&gt;" style="rounded=1;whiteSpace=wrap;html=1;strokeColor=#6c8ebf;fillColor=#dae8fc;fontFamily=Helvetica;fontSize=12;" parent="1" vertex="1">
          <mxGeometry x="660" y="494" width="81" height="26" as="geometry" />
        </mxCell>
        <mxCell id="DsEqZttGN_wy35svjwI5-3" value="" style="rounded=0;whiteSpace=wrap;html=1;strokeColor=#666666;fillColor=#f5f5f5;fontColor=#333333;fontFamily=Helvetica;" parent="1" vertex="1">
          <mxGeometry x="27" y="730" width="721" height="80" as="geometry" />
        </mxCell>
        <mxCell id="DsEqZttGN_wy35svjwI5-4" value="" style="shape=curlyBracket;whiteSpace=wrap;html=1;rounded=1;strokeColor=#000000;fontStyle=1;strokeWidth=2;fontFamily=Helvetica;" parent="1" vertex="1">
          <mxGeometry x="-1" y="730" width="20" height="80" as="geometry" />
        </mxCell>
        <mxCell id="DsEqZttGN_wy35svjwI5-5" value="开&lt;br&gt;发&lt;br&gt;环&lt;br&gt;境&lt;br&gt;及&lt;br&gt;依&lt;br&gt;赖" style="text;html=1;strokeColor=none;fillColor=none;align=center;verticalAlign=middle;whiteSpace=wrap;rounded=0;fontStyle=1;fontFamily=Helvetica;" parent="1" vertex="1">
          <mxGeometry x="-46" y="755" width="60" height="30" as="geometry" />
        </mxCell>
        <mxCell id="DsEqZttGN_wy35svjwI5-7" value="开发环境&lt;br&gt;&lt;br&gt;&lt;br&gt;&lt;br&gt;" style="rounded=1;whiteSpace=wrap;html=1;dashed=1;strokeColor=#FF250D;fontFamily=Helvetica;" parent="1" vertex="1">
          <mxGeometry x="129" y="742" width="248" height="60" as="geometry" />
        </mxCell>
        <mxCell id="DsEqZttGN_wy35svjwI5-8" value="依赖管理&lt;br&gt;&lt;br&gt;&lt;br&gt;&lt;br&gt;" style="rounded=1;whiteSpace=wrap;html=1;dashed=1;strokeColor=#FF3D0D;fontFamily=Helvetica;" parent="1" vertex="1">
          <mxGeometry x="395" y="742" width="248" height="60" as="geometry" />
        </mxCell>
        <mxCell id="DsEqZttGN_wy35svjwI5-9" value="JDK1.8" style="rounded=1;whiteSpace=wrap;html=1;strokeColor=#6c8ebf;fillColor=#dae8fc;fontFamily=Helvetica;" parent="1" vertex="1">
          <mxGeometry x="208.5" y="767" width="89" height="26" as="geometry" />
        </mxCell>
        <mxCell id="DsEqZttGN_wy35svjwI5-10" value="Maven" style="rounded=1;whiteSpace=wrap;html=1;strokeColor=#6c8ebf;fillColor=#dae8fc;fontFamily=Helvetica;" parent="1" vertex="1">
          <mxGeometry x="473.5" y="767" width="89" height="26" as="geometry" />
        </mxCell>
        <mxCell id="heGB15kAMO9hl7v8kSQB-1" value="Ajax" style="rounded=1;whiteSpace=wrap;html=1;strokeColor=#6c8ebf;fillColor=#dae8fc;fontFamily=Helvetica;" parent="1" vertex="1">
          <mxGeometry x="62" y="59" width="89" height="28" as="geometry" />
        </mxCell>
        <mxCell id="heGB15kAMO9hl7v8kSQB-3" value="小程序" style="text;html=1;strokeColor=none;fillColor=none;align=center;verticalAlign=middle;whiteSpace=wrap;rounded=0;fontFamily=Helvetica;fontSize=12;fontColor=#000000;fontStyle=1" parent="1" vertex="1">
          <mxGeometry x="310" y="-49" width="60" height="30" as="geometry" />
        </mxCell>
        <mxCell id="heGB15kAMO9hl7v8kSQB-4" value="" style="rounded=0;whiteSpace=wrap;html=1;fontFamily=Helvetica;fontSize=12;strokeColor=#66B2FF;strokeWidth=2;fillColor=none;fontColor=#333333;dashed=1;" parent="1" vertex="1">
          <mxGeometry x="428.75" y="-45" width="127.25" height="157" as="geometry" />
        </mxCell>
        <mxCell id="heGB15kAMO9hl7v8kSQB-5" value="APP" style="text;html=1;strokeColor=none;fillColor=none;align=center;verticalAlign=middle;whiteSpace=wrap;rounded=0;fontFamily=Helvetica;fontSize=12;fontColor=#000000;fontStyle=1" parent="1" vertex="1">
          <mxGeometry x="459" y="-49" width="60" height="30" as="geometry" />
        </mxCell>
        <mxCell id="heGB15kAMO9hl7v8kSQB-6" value="ReactNative" style="rounded=1;whiteSpace=wrap;html=1;strokeColor=#6c8ebf;fillColor=#dae8fc;fontFamily=Helvetica;" parent="1" vertex="1">
          <mxGeometry x="447.88" y="-19" width="89" height="28" as="geometry" />
        </mxCell>
        <mxCell id="heGB15kAMO9hl7v8kSQB-7" value="CodePush" style="rounded=1;whiteSpace=wrap;html=1;strokeColor=#6c8ebf;fillColor=#dae8fc;fontFamily=Helvetica;" parent="1" vertex="1">
          <mxGeometry x="447.88" y="16" width="89" height="28" as="geometry" />
        </mxCell>
        <mxCell id="heGB15kAMO9hl7v8kSQB-8" value="Fetch" style="rounded=1;whiteSpace=wrap;html=1;strokeColor=#6c8ebf;fillColor=#dae8fc;fontFamily=Helvetica;" parent="1" vertex="1">
          <mxGeometry x="447.88" y="52" width="89" height="28" as="geometry" />
        </mxCell>
        <mxCell id="heGB15kAMO9hl7v8kSQB-10" value="Webpack" style="rounded=1;whiteSpace=wrap;html=1;strokeColor=#6c8ebf;fillColor=#dae8fc;fontFamily=Helvetica;" parent="1" vertex="1">
          <mxGeometry x="664.25" y="-20" width="72.5" height="28" as="geometry" />
        </mxCell>
        <mxCell id="heGB15kAMO9hl7v8kSQB-11" value="Gulp" style="rounded=1;whiteSpace=wrap;html=1;strokeColor=#6c8ebf;fillColor=#dae8fc;fontFamily=Helvetica;" parent="1" vertex="1">
          <mxGeometry x="577" y="16" width="72.5" height="28" as="geometry" />
        </mxCell>
        <mxCell id="heGB15kAMO9hl7v8kSQB-12" value="ESLint" style="rounded=1;whiteSpace=wrap;html=1;strokeColor=#6c8ebf;fillColor=#dae8fc;fontFamily=Helvetica;" parent="1" vertex="1">
          <mxGeometry x="664.25" y="16" width="72.5" height="28" as="geometry" />
        </mxCell>
        <mxCell id="heGB15kAMO9hl7v8kSQB-13" value="Prettier" style="rounded=1;whiteSpace=wrap;html=1;strokeColor=#6c8ebf;fillColor=#dae8fc;fontFamily=Helvetica;" parent="1" vertex="1">
          <mxGeometry x="577" y="52" width="72.5" height="28" as="geometry" />
        </mxCell>
        <mxCell id="heGB15kAMO9hl7v8kSQB-14" value="GitLab CI/CD" style="rounded=1;whiteSpace=wrap;html=1;strokeColor=#6c8ebf;fillColor=#dae8fc;fontFamily=Helvetica;" parent="1" vertex="1">
          <mxGeometry x="664.25" y="52" width="72.5" height="28" as="geometry" />
        </mxCell>
        <mxCell id="eWxzJevqIBFPBqwUupoh-2" value="Spring Cloud Sleuth" style="rounded=1;whiteSpace=wrap;html=1;strokeColor=#6c8ebf;fillColor=#dae8fc;fontFamily=Helvetica;" parent="1" vertex="1">
          <mxGeometry x="286" y="424" width="89" height="28" as="geometry" />
        </mxCell>
      </root>
    </mxGraphModel>
  </diagram>
</mxfile>
